<mxfile host="app.diagrams.net" agent="Mozilla/5.0 (Windows NT 10.0; Win64; x64) AppleWebKit/537.36 (KHTML, like Gecko) Chrome/141.0.0.0 Safari/537.36" version="28.2.5">
  <diagram name="Página-1" id="XmtHpFKuPBI5ceb2EaLk">
    <mxGraphModel dx="1884" dy="777" grid="1" gridSize="10" guides="1" tooltips="1" connect="1" arrows="1" fold="1" page="1" pageScale="1" pageWidth="1169" pageHeight="827" math="0" shadow="0">
      <root>
        <mxCell id="0" />
        <mxCell id="1" parent="0" />
        <mxCell id="xocPlxTqOdL8vfepBns--1" value="" style="edgeStyle=orthogonalEdgeStyle;rounded=0;orthogonalLoop=1;jettySize=auto;html=1;sketch=1;curveFitting=1;jiggle=2;strokeWidth=3;labelBackgroundColor=none;" edge="1" parent="1" source="xocPlxTqOdL8vfepBns--2" target="xocPlxTqOdL8vfepBns--6">
          <mxGeometry relative="1" as="geometry" />
        </mxCell>
        <mxCell id="xocPlxTqOdL8vfepBns--2" value="Inicio" style="ellipse;whiteSpace=wrap;html=1;fillColor=#f8cecc;strokeColor=#b85450;strokeWidth=3;shadow=1;sketch=1;curveFitting=1;jiggle=2;labelBackgroundColor=none;" vertex="1" parent="1">
          <mxGeometry x="590" y="40" width="120" height="80" as="geometry" />
        </mxCell>
        <mxCell id="xocPlxTqOdL8vfepBns--3" value="" style="edgeStyle=orthogonalEdgeStyle;rounded=0;orthogonalLoop=1;jettySize=auto;html=1;sketch=1;curveFitting=1;jiggle=2;strokeWidth=3;labelBackgroundColor=none;" edge="1" parent="1" source="xocPlxTqOdL8vfepBns--4" target="xocPlxTqOdL8vfepBns--12">
          <mxGeometry relative="1" as="geometry" />
        </mxCell>
        <mxCell id="xocPlxTqOdL8vfepBns--4" value="ESCREVER &quot;Quantos números queres somar?&quot;" style="shape=parallelogram;perimeter=parallelogramPerimeter;whiteSpace=wrap;html=1;fixedSize=1;fillColor=#dae8fc;strokeColor=#6c8ebf;strokeWidth=3;shadow=1;sketch=1;curveFitting=1;jiggle=2;labelBackgroundColor=none;" vertex="1" parent="1">
          <mxGeometry x="60" y="20" width="210" height="120" as="geometry" />
        </mxCell>
        <mxCell id="xocPlxTqOdL8vfepBns--5" value="" style="edgeStyle=orthogonalEdgeStyle;rounded=0;orthogonalLoop=1;jettySize=auto;html=1;sketch=1;curveFitting=1;jiggle=2;strokeWidth=3;labelBackgroundColor=none;" edge="1" parent="1" source="xocPlxTqOdL8vfepBns--6" target="xocPlxTqOdL8vfepBns--4">
          <mxGeometry relative="1" as="geometry" />
        </mxCell>
        <mxCell id="xocPlxTqOdL8vfepBns--6" value="&lt;div&gt;NumTotal=0&lt;/div&gt;&lt;div&gt;Soma=0&lt;/div&gt;" style="whiteSpace=wrap;html=1;fillColor=#d5e8d4;strokeColor=#82b366;strokeWidth=3;shadow=1;sketch=1;curveFitting=1;jiggle=2;labelBackgroundColor=none;" vertex="1" parent="1">
          <mxGeometry x="311.5" y="45" width="228.5" height="70" as="geometry" />
        </mxCell>
        <mxCell id="xocPlxTqOdL8vfepBns--7" value="" style="edgeStyle=orthogonalEdgeStyle;rounded=0;orthogonalLoop=1;jettySize=auto;html=1;sketch=1;curveFitting=1;jiggle=2;strokeWidth=3;labelBackgroundColor=none;" edge="1" parent="1" source="xocPlxTqOdL8vfepBns--8" target="xocPlxTqOdL8vfepBns--10">
          <mxGeometry relative="1" as="geometry" />
        </mxCell>
        <mxCell id="xocPlxTqOdL8vfepBns--8" value="NumTotal=NumTotal+Resposta" style="whiteSpace=wrap;html=1;fillColor=#d5e8d4;strokeColor=#82b366;strokeWidth=3;shadow=1;sketch=1;curveFitting=1;jiggle=2;labelBackgroundColor=none;" vertex="1" parent="1">
          <mxGeometry x="50.75" y="260" width="228.5" height="59" as="geometry" />
        </mxCell>
        <mxCell id="xocPlxTqOdL8vfepBns--9" value="" style="edgeStyle=orthogonalEdgeStyle;rounded=0;orthogonalLoop=1;jettySize=auto;html=1;sketch=1;curveFitting=1;jiggle=2;strokeWidth=3;labelBackgroundColor=none;" edge="1" parent="1" source="xocPlxTqOdL8vfepBns--10" target="xocPlxTqOdL8vfepBns--14">
          <mxGeometry relative="1" as="geometry" />
        </mxCell>
        <mxCell id="xocPlxTqOdL8vfepBns--10" value="ESCREVER &quot;Queres somar qual agora?&quot;" style="shape=parallelogram;perimeter=parallelogramPerimeter;whiteSpace=wrap;html=1;fixedSize=1;fillColor=#dae8fc;strokeColor=#6c8ebf;strokeWidth=3;shadow=1;sketch=1;curveFitting=1;jiggle=2;labelBackgroundColor=none;" vertex="1" parent="1">
          <mxGeometry x="20" y="360" width="290" height="108.5" as="geometry" />
        </mxCell>
        <mxCell id="xocPlxTqOdL8vfepBns--11" value="" style="edgeStyle=orthogonalEdgeStyle;rounded=0;orthogonalLoop=1;jettySize=auto;html=1;sketch=1;curveFitting=1;jiggle=2;strokeWidth=3;labelBackgroundColor=none;" edge="1" parent="1" source="xocPlxTqOdL8vfepBns--12" target="xocPlxTqOdL8vfepBns--8">
          <mxGeometry relative="1" as="geometry" />
        </mxCell>
        <mxCell id="xocPlxTqOdL8vfepBns--12" value="LER Resposta" style="shape=parallelogram;perimeter=parallelogramPerimeter;whiteSpace=wrap;html=1;fixedSize=1;fillColor=#e1d5e7;strokeColor=#9673a6;strokeWidth=3;shadow=1;sketch=1;curveFitting=1;jiggle=2;labelBackgroundColor=none;" vertex="1" parent="1">
          <mxGeometry x="105" y="170" width="120" height="60" as="geometry" />
        </mxCell>
        <mxCell id="xocPlxTqOdL8vfepBns--13" value="" style="edgeStyle=orthogonalEdgeStyle;rounded=0;orthogonalLoop=1;jettySize=auto;html=1;sketch=1;curveFitting=1;jiggle=2;strokeWidth=3;labelBackgroundColor=none;" edge="1" parent="1" source="xocPlxTqOdL8vfepBns--14" target="xocPlxTqOdL8vfepBns--16">
          <mxGeometry relative="1" as="geometry" />
        </mxCell>
        <mxCell id="xocPlxTqOdL8vfepBns--14" value="LER Resposta" style="shape=parallelogram;perimeter=parallelogramPerimeter;whiteSpace=wrap;html=1;fixedSize=1;fillColor=#e1d5e7;strokeColor=#9673a6;strokeWidth=3;shadow=1;sketch=1;curveFitting=1;jiggle=2;labelBackgroundColor=none;" vertex="1" parent="1">
          <mxGeometry x="25" y="500" width="280" height="60" as="geometry" />
        </mxCell>
        <mxCell id="xocPlxTqOdL8vfepBns--15" value="" style="edgeStyle=orthogonalEdgeStyle;rounded=0;orthogonalLoop=1;jettySize=auto;html=1;sketch=1;curveFitting=1;jiggle=2;strokeWidth=3;labelBackgroundColor=none;" edge="1" parent="1" source="xocPlxTqOdL8vfepBns--16" target="xocPlxTqOdL8vfepBns--21">
          <mxGeometry relative="1" as="geometry" />
        </mxCell>
        <mxCell id="xocPlxTqOdL8vfepBns--16" value="Soma=Soma+Resposta&lt;div&gt;NumTotal=NumTotal-1&lt;/div&gt;" style="whiteSpace=wrap;html=1;fillColor=#d5e8d4;strokeColor=#82b366;strokeWidth=3;shadow=1;sketch=1;curveFitting=1;jiggle=2;labelBackgroundColor=none;" vertex="1" parent="1">
          <mxGeometry x="30" y="580" width="270" height="60" as="geometry" />
        </mxCell>
        <mxCell id="xocPlxTqOdL8vfepBns--17" value="" style="edgeStyle=orthogonalEdgeStyle;rounded=0;orthogonalLoop=1;jettySize=auto;html=1;sketch=1;curveFitting=1;jiggle=2;strokeWidth=3;labelBackgroundColor=none;" edge="1" parent="1" source="xocPlxTqOdL8vfepBns--21" target="xocPlxTqOdL8vfepBns--23">
          <mxGeometry relative="1" as="geometry" />
        </mxCell>
        <mxCell id="xocPlxTqOdL8vfepBns--18" value="Sim" style="edgeLabel;html=1;align=center;verticalAlign=middle;resizable=0;points=[];" vertex="1" connectable="0" parent="xocPlxTqOdL8vfepBns--17">
          <mxGeometry x="0.1287" y="1" relative="1" as="geometry">
            <mxPoint x="1" as="offset" />
          </mxGeometry>
        </mxCell>
        <mxCell id="xocPlxTqOdL8vfepBns--19" style="edgeStyle=orthogonalEdgeStyle;rounded=0;orthogonalLoop=1;jettySize=auto;html=1;entryX=1;entryY=0.5;entryDx=0;entryDy=0;sketch=1;curveFitting=1;jiggle=2;strokeWidth=3;labelBackgroundColor=none;" edge="1" parent="1" source="xocPlxTqOdL8vfepBns--21" target="xocPlxTqOdL8vfepBns--10">
          <mxGeometry relative="1" as="geometry">
            <Array as="points">
              <mxPoint x="423" y="414" />
            </Array>
          </mxGeometry>
        </mxCell>
        <mxCell id="xocPlxTqOdL8vfepBns--20" value="Não" style="edgeLabel;html=1;align=center;verticalAlign=middle;resizable=0;points=[];" vertex="1" connectable="0" parent="xocPlxTqOdL8vfepBns--19">
          <mxGeometry x="-0.2195" y="1" relative="1" as="geometry">
            <mxPoint as="offset" />
          </mxGeometry>
        </mxCell>
        <mxCell id="xocPlxTqOdL8vfepBns--21" value="NumTotal=0" style="rhombus;whiteSpace=wrap;html=1;fillColor=#d5e8d4;strokeColor=#82b366;strokeWidth=3;shadow=1;sketch=1;curveFitting=1;jiggle=2;labelBackgroundColor=none;" vertex="1" parent="1">
          <mxGeometry x="367" y="555" width="112.5" height="110" as="geometry" />
        </mxCell>
        <mxCell id="xocPlxTqOdL8vfepBns--22" value="" style="edgeStyle=orthogonalEdgeStyle;rounded=0;orthogonalLoop=1;jettySize=auto;html=1;sketch=1;curveFitting=1;jiggle=2;strokeWidth=3;labelBackgroundColor=none;" edge="1" parent="1" source="xocPlxTqOdL8vfepBns--23" target="xocPlxTqOdL8vfepBns--24">
          <mxGeometry relative="1" as="geometry" />
        </mxCell>
        <mxCell id="xocPlxTqOdL8vfepBns--23" value="Escrever &quot;A soma e igual a &quot;, Soma" style="shape=parallelogram;perimeter=parallelogramPerimeter;whiteSpace=wrap;html=1;fixedSize=1;fillColor=#dae8fc;strokeColor=#6c8ebf;strokeWidth=3;shadow=1;sketch=1;curveFitting=1;jiggle=2;labelBackgroundColor=none;" vertex="1" parent="1">
          <mxGeometry x="520" y="580" width="180" height="60" as="geometry" />
        </mxCell>
        <mxCell id="xocPlxTqOdL8vfepBns--24" value="Fim" style="ellipse;whiteSpace=wrap;html=1;fillColor=#fff2cc;strokeColor=#d6b656;strokeWidth=3;shadow=1;sketch=1;curveFitting=1;jiggle=2;labelBackgroundColor=none;" vertex="1" parent="1">
          <mxGeometry x="540" y="665" width="140" height="80" as="geometry" />
        </mxCell>
        <mxCell id="xocPlxTqOdL8vfepBns--25" value="5º Fluxograma" style="text;html=1;align=center;verticalAlign=middle;resizable=0;points=[];autosize=1;strokeColor=none;fillColor=none;" vertex="1" parent="1">
          <mxGeometry x="740" y="130" width="100" height="30" as="geometry" />
        </mxCell>
      </root>
    </mxGraphModel>
  </diagram>
</mxfile>
